<svg width="580" height="400" xmlns="http://www.w3.org/2000/svg">
 <!-- Created with Method Draw - http://github.com/duopixel/Method-Draw/ -->
 <g>
  <title>background</title>
  <rect fill="#fff" id="canvas_background" height="402" width="582" y="-1" x="-1"/>
  <g display="none" overflow="visible" y="0" x="0" height="100%" width="100%" id="canvasGrid">
   <rect fill="url(#gridpattern)" stroke-width="0" y="0" x="0" height="100%" width="100%"/>
  </g>
 </g>
 <g>
  <title>Layer 1</title>
  <path opacity="0.88" id="svg_1" d="m1.5,242.45313c28,-90 66,-93 132.5,-37.45313c66.5,55.54687 92.5,-61.54687 147.5,5.45313c55,67 129,24 132,-32c3,-56 137,-79 173,-5c36,74 84,-67 84,-67c0,0 35,340 34.5,339.54687c0.5,0.45313 -708.5,-12.54687 -709.5,-12.54687c-1,0 -34,-181 -33.5,-181.45313c-0.5,0.45313 11.5,80.45313 39.5,-9.54687z" stroke-width="0" stroke="#000" fill="#ff7f00"/>
 </g>
</svg>